<svg width="115" height="24" viewBox="0 0 115 24" fill="none" xmlns="http://www.w3.org/2000/svg">
<path d="M21.336 23H0.344L10.84 0.247999L21.336 23ZM2.2 21.816H19.48L10.84 3.064L2.2 21.816ZM44.2555 17.336V23H27.2955V0.727999H28.4795V17.336H44.2555ZM51.015 6.36V0.727999H65.415V6.36H58.791V17.368H65.415V23H51.015V17.368H57.639V6.36H51.015ZM81.7425 1.432C80.3132 1.432 78.9798 1.79467 77.7425 2.52C76.5265 3.224 75.5558 4.19467 74.8305 5.432C74.1052 6.648 73.7425 7.98133 73.7425 9.432V13.656C73.7425 15.1707 73.9558 16.4187 74.3825 17.4C74.9798 18.7867 75.8865 19.9173 77.1025 20.792C78.3185 21.6667 79.6838 22.1573 81.1985 22.264V11.864H90.9585V13.976C90.9585 15.3413 90.7558 16.5573 90.3505 17.624C89.6892 19.3947 88.5798 20.8133 87.0225 21.88C85.4652 22.9467 83.7052 23.48 81.7425 23.48C79.8865 23.48 78.1905 22.9787 76.6545 21.976C75.1398 20.952 74.0305 19.5973 73.3265 17.912C72.8145 16.7173 72.5585 15.2987 72.5585 13.656V9.432C72.5585 7.768 72.9638 6.232 73.7745 4.824C74.6065 3.416 75.7265 2.30667 77.1345 1.496C78.5425 0.663999 80.0785 0.247999 81.7425 0.247999C83.1292 0.247999 84.3985 0.482666 85.5505 0.952C86.7025 1.4 87.6838 2.06133 88.4945 2.936C89.1558 3.66133 89.6892 4.472 90.0945 5.368C90.5212 6.264 90.7345 7.17067 90.7345 8.088H89.5825C89.5612 7.29867 89.3585 6.52 88.9745 5.752C88.6118 4.984 88.1425 4.29067 87.5665 3.672C86.1372 2.17867 84.1958 1.432 81.7425 1.432ZM89.7745 13.016H82.3505V22.264C83.8865 22.1573 85.2625 21.6773 86.4785 20.824C87.7158 19.9493 88.6225 18.7973 89.1985 17.368C89.5825 16.3653 89.7745 15.2347 89.7745 13.976V13.016ZM96.918 22.968V0.695999H98.166L113.718 15.832V0.695999H114.902V22.968H96.918Z" fill="#0891B2"/>
</svg>
